<svg width="48" height="48" viewBox="0 0 48 48" fill="none" xmlns="http://www.w3.org/2000/svg">
<g filter="url(#filter0_d_1012_1419)">
<circle cx="24" cy="24" r="18.5" fill="white" stroke="#ECECEF"/>
<path d="M17.9934 20.92C17.9158 20.9974 17.8542 21.0894 17.8122 21.1906C17.7702 21.2919 17.7485 21.4004 17.7485 21.51C17.7485 21.6196 17.7702 21.7281 17.8122 21.8294C17.8542 21.9306 17.9158 22.0226 17.9934 22.1L23.5334 27.64C23.595 27.7018 23.6683 27.7508 23.7489 27.7843C23.8296 27.8177 23.916 27.835 24.0034 27.835C24.0907 27.835 24.1771 27.8177 24.2578 27.7843C24.3384 27.7508 24.4117 27.7018 24.4734 27.64L30.0134 22.1C30.34 21.7733 30.34 21.2467 30.0134 20.92C29.6867 20.5933 29.16 20.5933 28.8334 20.92L24 25.7467L19.1667 20.9133C18.8467 20.5933 18.3134 20.5933 17.9934 20.92Z" fill="#222224"/>
</g>
<defs>
<filter id="filter0_d_1012_1419" x="0" y="0" width="48" height="48" filterUnits="userSpaceOnUse" color-interpolation-filters="sRGB">
<feFlood flood-opacity="0" result="BackgroundImageFix"/>
<feColorMatrix in="SourceAlpha" type="matrix" values="0 0 0 0 0 0 0 0 0 0 0 0 0 0 0 0 0 0 127 0" result="hardAlpha"/>
<feOffset/>
<feGaussianBlur stdDeviation="2.5"/>
<feComposite in2="hardAlpha" operator="out"/>
<feColorMatrix type="matrix" values="0 0 0 0 0 0 0 0 0 0 0 0 0 0 0 0 0 0 0.08 0"/>
<feBlend mode="normal" in2="BackgroundImageFix" result="effect1_dropShadow_1012_1419"/>
<feBlend mode="normal" in="SourceGraphic" in2="effect1_dropShadow_1012_1419" result="shape"/>
</filter>
</defs>
</svg>
