<svg width="212" height="52" viewBox="0 0 212 52" fill="none" xmlns="http://www.w3.org/2000/svg">
<rect x="0.5" y="0.5" width="211" height="51" rx="25.5" stroke="#ECECEF"/>
<path d="M32.3999 29.4L43.3999 18.4L49.9999 25L38.9999 36L32.3999 29.4Z" fill="#D1D1D4"/>
<path d="M34.6001 18.3999L45.6001 29.3999L39.0001 35.9999L28.0001 24.9999L34.6001 18.3999Z" fill="#F7F7F9"/>
<path d="M83.7848 17.186H85.2608V33.368H83.7848V17.186ZM76.7468 18.428C79.1408 18.428 80.8508 20.624 80.8508 24.062C80.8508 27.5 79.1408 29.696 76.7468 29.696C74.3528 29.696 72.6428 27.5 72.6428 24.062C72.6428 20.624 74.3528 18.428 76.7468 18.428ZM76.7468 19.76C75.1628 19.76 74.0468 21.452 74.0468 24.062C74.0468 26.69 75.1628 28.382 76.7468 28.382C78.3128 28.382 79.4288 26.69 79.4288 24.062C79.4288 21.452 78.3128 19.76 76.7468 19.76ZM99.6954 29.03V22.658H96.6894V21.398H99.6954V17.204H101.189V29.03H99.6954ZM96.9774 25.178L97.1214 26.384C94.8534 26.762 92.9634 26.834 89.7774 26.834H88.5534V21.902H94.2054V19.508H88.5174V18.32H95.6814V23.036H90.0114V25.628C93.0174 25.628 94.8354 25.538 96.9774 25.178ZM92.2434 31.766H101.675V32.972H90.7674V28.148H92.2434V31.766ZM119.836 23.63L118.396 23.468C118.792 21.65 118.792 20.318 118.792 19.148H109.252V17.96H120.25V19.094C120.25 20.3 120.25 21.758 119.836 23.63ZM115.498 27.212V27.932C115.498 30.056 117.982 31.694 120.934 32.108L120.376 33.26C117.91 32.846 115.714 31.712 114.76 29.966C113.77 31.712 111.574 32.846 109.108 33.26L108.55 32.108C111.52 31.694 114.004 30.056 114.004 27.932V27.212H115.498ZM114.976 24.746H122.086V25.934H107.542V24.746H113.5V21.506H114.976V24.746ZM128.385 22.964L127.899 21.848C130.707 21.614 133.281 20.444 133.461 18.842H128.475V17.69H140.391V18.842H135.405C135.585 20.444 138.141 21.614 140.949 21.848L140.481 22.964C137.763 22.712 135.315 21.668 134.433 19.994C133.569 21.65 131.103 22.712 128.385 22.964ZM134.415 32.414C136.557 32.414 137.763 32.036 137.763 31.316C137.763 30.56 136.557 30.2 134.415 30.2C132.273 30.2 131.085 30.56 131.085 31.316C131.085 32.036 132.273 32.414 134.415 32.414ZM134.415 29.156C137.529 29.156 139.275 29.894 139.275 31.316C139.275 32.702 137.529 33.422 134.415 33.422C131.301 33.422 129.573 32.702 129.573 31.316C129.573 29.894 131.301 29.156 134.415 29.156ZM135.171 25.718V27.23H140.373V28.364H128.475V27.23H133.695V25.718H135.171ZM135.153 23.882H141.741V25.07H127.125V23.882H133.677V21.974H135.153V23.882ZM147.265 28.382C148.813 28.382 149.911 26.69 149.911 24.062C149.911 21.452 148.813 19.76 147.265 19.76C145.699 19.76 144.601 21.452 144.601 24.062C144.601 26.69 145.699 28.382 147.265 28.382ZM147.265 18.428C149.641 18.428 151.315 20.624 151.315 24.062C151.315 27.5 149.641 29.696 147.265 29.696C144.889 29.696 143.197 27.5 143.197 24.062C143.197 20.624 144.889 18.428 147.265 18.428ZM158.047 23.63V24.872H155.383V33.332H153.907V17.204H155.383V23.63H158.047ZM163.86 26.24V30.038H168.36V26.24C167.676 26.402 166.902 26.492 166.092 26.492C165.3 26.492 164.526 26.402 163.86 26.24ZM166.092 19.364C163.5 19.364 161.646 20.552 161.646 22.352C161.646 24.152 163.5 25.34 166.092 25.34C168.684 25.34 170.556 24.152 170.556 22.352C170.556 20.552 168.684 19.364 166.092 19.364ZM169.836 30.038H173.454V31.262H158.784V30.038H162.384V25.682C161.034 24.98 160.224 23.81 160.224 22.352C160.224 19.832 162.672 18.212 166.092 18.212C169.53 18.212 171.96 19.832 171.96 22.352C171.96 23.81 171.168 24.962 169.836 25.664V30.038ZM175.792 32.252C175.528 32.252 175.3 32.156 175.108 31.964C174.916 31.772 174.82 31.538 174.82 31.262C174.82 30.998 174.916 30.776 175.108 30.596C175.3 30.404 175.528 30.308 175.792 30.308C176.056 30.308 176.284 30.404 176.476 30.596C176.668 30.776 176.764 30.998 176.764 31.262C176.764 31.538 176.668 31.772 176.476 31.964C176.284 32.156 176.056 32.252 175.792 32.252ZM174.946 20.12H176.638L176.314 29.21H175.27L174.946 20.12Z" fill="#D1D1D4"/>
</svg>
