<svg width="67" height="12" viewBox="0 0 67 12" fill="none" xmlns="http://www.w3.org/2000/svg">
<path opacity="0.4" d="M65.3333 4.00006V8.00006C66.138 7.66128 66.6614 6.87319 66.6614 6.00006C66.6614 5.12693 66.138 4.33884 65.3333 4.00006Z" fill="#222224"/>
<rect x="44.3333" y="2.33337" width="18" height="7.33333" rx="1.33333" fill="#222224"/>
<path fill-rule="evenodd" clip-rule="evenodd" d="M29.6671 2.61517C31.8918 2.61526 34.0315 3.46937 35.6438 5.00097C35.7652 5.11921 35.9593 5.11772 36.0789 4.99762L37.2395 3.82729C37.3 3.76638 37.3338 3.68387 37.3333 3.59802C37.3328 3.51217 37.2981 3.43006 37.2368 3.36986C33.0049 -0.682369 26.3286 -0.682369 22.0967 3.36986C22.0354 3.43002 22.0006 3.5121 22 3.59795C21.9994 3.6838 22.0331 3.76634 22.0936 3.82729L23.2546 4.99762C23.3741 5.1179 23.5683 5.11939 23.6897 5.00097C25.3022 3.46927 27.4421 2.61516 29.6671 2.61517ZM29.6671 6.42275C30.8894 6.42267 32.0681 6.87663 32.9742 7.6964C33.0968 7.81275 33.2898 7.81023 33.4093 7.69072L34.5685 6.52039C34.6296 6.459 34.6635 6.37572 34.6626 6.28919C34.6617 6.20265 34.6261 6.12008 34.5639 6.05995C31.8047 3.49554 27.5318 3.49554 24.7726 6.05995C24.7103 6.12008 24.6747 6.20269 24.6739 6.28926C24.6731 6.37582 24.7071 6.45909 24.7683 6.52039L25.9272 7.69072C26.0467 7.81023 26.2397 7.81275 26.3623 7.6964C27.2677 6.87717 28.4455 6.42326 29.6671 6.42275ZM31.9893 8.98459C31.9911 9.07136 31.9569 9.15503 31.8949 9.21583L29.8896 11.2378C29.8308 11.2972 29.7507 11.3307 29.6671 11.3307C29.5834 11.3307 29.5033 11.2972 29.4445 11.2378L27.4389 9.21583C27.3769 9.15498 27.3428 9.07129 27.3447 8.98451C27.3465 8.89774 27.3841 8.81556 27.4486 8.75739C28.7292 7.67512 30.6049 7.67512 31.8856 8.75739C31.95 8.81561 31.9875 8.89781 31.9893 8.98459Z" fill="#222224"/>
<path fill-rule="evenodd" clip-rule="evenodd" d="M16 0.666687H15C14.4477 0.666687 14 1.1144 14 1.66669V10.3334C14 10.8856 14.4477 11.3334 15 11.3334H16C16.5523 11.3334 17 10.8856 17 10.3334V1.66669C17 1.1144 16.5523 0.666687 16 0.666687ZM10.3333 3.00002H11.3333C11.8856 3.00002 12.3333 3.44774 12.3333 4.00002V10.3334C12.3333 10.8856 11.8856 11.3334 11.3333 11.3334H10.3333C9.78105 11.3334 9.33333 10.8856 9.33333 10.3334V4.00002C9.33333 3.44774 9.78105 3.00002 10.3333 3.00002ZM6.66667 5.33335H5.66667C5.11438 5.33335 4.66667 5.78107 4.66667 6.33335V10.3334C4.66667 10.8856 5.11438 11.3334 5.66667 11.3334H6.66667C7.21895 11.3334 7.66667 10.8856 7.66667 10.3334V6.33335C7.66667 5.78107 7.21895 5.33335 6.66667 5.33335ZM2 7.33335H1C0.447715 7.33335 0 7.78107 0 8.33335V10.3334C0 10.8856 0.447715 11.3334 1 11.3334H2C2.55228 11.3334 3 10.8856 3 10.3334V8.33335C3 7.78107 2.55228 7.33335 2 7.33335Z" fill="#222224"/>
</svg>
