<svg width="54" height="21" viewBox="0 0 54 21" fill="none" xmlns="http://www.w3.org/2000/svg">
<path d="M18.0411 5.96484C20.2149 5.96484 22.0264 7.48926 22.0264 10.9482V10.9619C22.0264 14.2227 20.5157 16.1709 18.0001 16.1709C16.1749 16.1709 14.8077 15.1182 14.5001 13.6279L14.4864 13.5527H16.2364L16.2569 13.6143C16.5235 14.291 17.1251 14.7285 18.0069 14.7285C19.5929 14.7285 20.2559 13.2109 20.3243 11.3447C20.3311 11.2422 20.338 11.1396 20.338 11.0303H20.297C19.9073 11.9326 18.9229 12.6162 17.5899 12.6162C15.6895 12.6162 14.3497 11.249 14.3497 9.39648V9.38281C14.3497 7.39355 15.9151 5.96484 18.0411 5.96484ZM18.0411 11.2559C19.169 11.2559 20.0304 10.4629 20.0304 9.3623V9.35547C20.0304 8.26172 19.169 7.40723 18.0616 7.40723C16.9679 7.40723 16.086 8.25488 16.086 9.32129V9.33496C16.086 10.4561 16.92 11.2559 18.0411 11.2559ZM23.9476 9.54688C23.3939 9.54688 22.9564 9.10938 22.9564 8.55566C22.9564 8.00195 23.3939 7.57129 23.9476 7.57129C24.5013 7.57129 24.932 8.00195 24.932 8.55566C24.932 9.10938 24.5013 9.54688 23.9476 9.54688ZM23.9476 14.5645C23.3939 14.5645 22.9564 14.127 22.9564 13.5732C22.9564 13.0195 23.3939 12.5889 23.9476 12.5889C24.5013 12.5889 24.932 13.0195 24.932 13.5732C24.932 14.127 24.5013 14.5645 23.9476 14.5645ZM30.7155 16V14.1064H25.7936V12.6025L29.8883 6.13574H32.3971V12.6572H33.737V14.1064H32.3971V16H30.7155ZM27.3795 12.6982H30.7428V7.46875H30.7018L27.3795 12.6504V12.6982ZM37.0322 16V7.81738H36.9911L34.4413 9.56738V7.94727L37.0185 6.13574H38.7616V16H37.0322Z" fill="#222224"/>
</svg>
