<svg width="40" height="40" viewBox="0 0 40 40" fill="none" xmlns="http://www.w3.org/2000/svg">
<path fill-rule="evenodd" clip-rule="evenodd" d="M14.0384 12.1528C12.7548 11.8267 10.3803 11.9572 11.1504 15.0876C11.6317 17.2072 12.3056 22.3267 11.1504 25.8485C10.9899 26.8267 11.3429 28.5876 14.0384 27.805C15.6428 27.1528 20.1995 26.2398 25.5904 27.805C26.8739 28.1311 29.3448 28.1963 28.9597 25.8485C28.3179 23.5659 27.3232 18.218 28.4784 15.0876C29.1202 13.7833 29.4411 11.3702 25.5904 12.1528C23.3442 12.642 17.889 13.3267 14.0384 12.1528ZM27 14H13V26H27V14Z" fill="white"/>
<path d="M14 23L16.7273 18.2092C17.2727 17.2967 18.8 16.0192 20.5455 18.2092L23.0084 21.8146H23.5763L21.6364 18.8936C22 18.6655 22.1818 18.2092 23.2727 18.8936L26 23L24.3636 23H23.8182H14Z" fill="white"/>
</svg>
