<svg width="18" height="18" viewBox="0 0 18 18" fill="none" xmlns="http://www.w3.org/2000/svg">
<path d="M12.5268 9.95563H12.5341" stroke="#287CFF" stroke-width="1.125" stroke-linecap="square"/>
<path d="M12.5268 7.474H12.5341" stroke="#287CFF" stroke-width="1.125" stroke-linecap="square"/>
<path d="M9.44866 9.95563H9.45601" stroke="#287CFF" stroke-width="1.125" stroke-linecap="square"/>
<path d="M9.44866 7.474H9.45601" stroke="#287CFF" stroke-width="1.125" stroke-linecap="square"/>
<path d="M6.3637 9.95563H6.37105" stroke="#287CFF" stroke-width="1.125" stroke-linecap="square"/>
<path d="M6.3637 7.474H6.37105" stroke="#287CFF" stroke-width="1.125" stroke-linecap="square"/>
<path d="M9.44866 12.6519H9.45601" stroke="#287CFF" stroke-width="1.125" stroke-linecap="square"/>
<path d="M6.3637 12.6519H6.37105" stroke="#287CFF" stroke-width="1.125" stroke-linecap="square"/>
<path d="M11.979 2.0625V4.3125" stroke="#287CFF" stroke-width="1.125" stroke-linecap="round"/>
<path d="M6.375 2.0625V4.3125" stroke="#287CFF" stroke-width="1.125" stroke-linecap="round"/>
<path fill-rule="evenodd" clip-rule="evenodd" d="M15.5068 4.65802C15.5068 3.82959 14.8353 3.15802 14.0068 3.15802H4.25684C3.42841 3.15802 2.75684 3.82959 2.75684 4.65802V14.7061C2.75684 15.5345 3.42841 16.2061 4.25684 16.2061H14.0068C14.8353 16.2061 15.5068 15.5345 15.5068 14.7061V4.65802Z" stroke="#287CFF" stroke-width="1.125" stroke-linecap="square"/>
</svg>
