<svg width="40" height="40" viewBox="0 0 40 40" fill="none" xmlns="http://www.w3.org/2000/svg">
<path fill-rule="evenodd" clip-rule="evenodd" d="M11 13C10.4477 13 10 13.4477 10 14V18C11.1046 18 12 18.8954 12 20C12 21.1046 11.1046 22 10 22V26C10 26.5523 10.4477 27 11 27H29C29.5523 27 30 26.5523 30 26V22C28.8954 22 28 21.1046 28 20C28 18.8954 28.8954 18 30 18V14C30 13.4477 29.5523 13 29 13H11ZM16 17.75C15.5858 17.75 15.25 18.0858 15.25 18.5C15.25 18.9142 15.5858 19.25 16 19.25H21.5C21.9142 19.25 22.25 18.9142 22.25 18.5C22.25 18.0858 21.9142 17.75 21.5 17.75H16ZM15.25 21C15.25 20.5858 15.5858 20.25 16 20.25H21.5C21.9142 20.25 22.25 20.5858 22.25 21C22.25 21.4142 21.9142 21.75 21.5 21.75H16C15.5858 21.75 15.25 21.4142 15.25 21ZM25.75 15C25.75 14.5858 25.4142 14.25 25 14.25C24.5858 14.25 24.25 14.5858 24.25 15V16C24.25 16.4142 24.5858 16.75 25 16.75C25.4142 16.75 25.75 16.4142 25.75 16V15ZM25 18.25C25.4142 18.25 25.75 18.5858 25.75 19V20C25.75 20.4142 25.4142 20.75 25 20.75C24.5858 20.75 24.25 20.4142 24.25 20V19C24.25 18.5858 24.5858 18.25 25 18.25ZM25.75 23C25.75 22.5858 25.4142 22.25 25 22.25C24.5858 22.25 24.25 22.5858 24.25 23V24C24.25 24.4142 24.5858 24.75 25 24.75C25.4142 24.75 25.75 24.4142 25.75 24V23Z" fill="white"/>
</svg>
