<svg width="30" height="30" viewBox="0 0 30 30" fill="none" xmlns="http://www.w3.org/2000/svg">
<g clip-path="url(#clip0_77_2029)">
<path d="M21.3001 16H25.2031C25.8643 16 26.4001 16.5376 26.4001 17.1982V21.4H22.2001V22.6H25.2031C25.8643 22.6 26.4001 23.1328 26.4001 23.8V25H15.6001V23.8C15.6001 23.137 16.1359 22.6 16.7971 22.6H19.8001V21.4H15.6001V17.1982C15.6001 16.5364 16.1359 16 16.7971 16H20.7001V14.749C20.4999 14.6782 20.3312 14.5389 20.2238 14.3558C20.1164 14.1727 20.0772 13.9575 20.1131 13.7482C20.149 13.539 20.2577 13.3492 20.42 13.2123C20.5823 13.0755 20.7878 13.0004 21.0001 13.0004C21.2124 13.0004 21.4179 13.0755 21.5802 13.2123C21.7425 13.3492 21.8512 13.539 21.8871 13.7482C21.923 13.9575 21.8838 14.1727 21.7764 14.3558C21.669 14.5389 21.5003 14.6782 21.3001 14.749V16ZM18.9001 19.6C19.1388 19.6 19.3677 19.5051 19.5365 19.3364C19.7053 19.1676 19.8001 18.9387 19.8001 18.7C19.8001 18.4613 19.7053 18.2323 19.5365 18.0636C19.3677 17.8948 19.1388 17.8 18.9001 17.8C18.6614 17.8 18.4325 17.8948 18.2637 18.0636C18.0949 18.2323 18.0001 18.4613 18.0001 18.7C18.0001 18.9387 18.0949 19.1676 18.2637 19.3364C18.4325 19.5051 18.6614 19.6 18.9001 19.6ZM23.1001 19.6C23.3388 19.6 23.5677 19.5051 23.7365 19.3364C23.9053 19.1676 24.0001 18.9387 24.0001 18.7C24.0001 18.4613 23.9053 18.2323 23.7365 18.0636C23.5677 17.8948 23.3388 17.8 23.1001 17.8C22.8614 17.8 22.6325 17.8948 22.4637 18.0636C22.2949 18.2323 22.2001 18.4613 22.2001 18.7C22.2001 18.9387 22.2949 19.1676 22.4637 19.3364C22.6325 19.5051 22.8614 19.6 23.1001 19.6Z" fill="#00C05A"/>
</g>
<rect x="2" y="7" width="17" height="8" rx="4" fill="#FD4D5F"/>
<path d="M12.8694 12.1838C13.012 11.5036 13.6318 11.3056 14.2119 11.2694C14.4319 11.2527 14.8776 11.2332 15.0155 11.2276L15.0635 10.985C15.1266 10.6839 14.9663 10.5111 14.6045 10.5111C14.2798 10.5111 14.05 10.656 13.9474 10.8735H13.2467C13.4061 10.3577 13.9602 9.97021 14.735 9.97021C15.3218 9.97021 15.9501 10.2072 15.7811 11.0129L15.3568 13.0369H14.6618L14.7494 12.6188H14.7267C14.5362 12.8752 14.2017 13.0983 13.7146 13.0983C13.125 13.0983 12.7438 12.7832 12.8694 12.1838ZM13.5713 12.1783C13.5164 12.4403 13.7077 12.5742 14.0125 12.5742C14.454 12.5742 14.7956 12.2898 14.8669 11.9497L14.9161 11.7015C14.7839 11.7071 14.3741 11.7322 14.2265 11.7433C13.876 11.7712 13.6269 11.9134 13.5713 12.1783Z" fill="white"/>
<path d="M13.3179 10.0092L13.2034 10.5557H12.5938L12.2641 12.1281C12.2034 12.418 12.3392 12.4766 12.5209 12.4793C12.6058 12.4821 12.75 12.4738 12.8423 12.4682L12.7207 13.0481C12.6324 13.062 12.4893 13.0787 12.3047 13.076C11.7572 13.0787 11.3911 12.8139 11.5161 12.2452L11.8702 10.5557H11.4259L11.5404 10.0092H11.9848L12.1368 9.28436H12.8603L12.7083 10.0092H13.3179Z" fill="white"/>
<path d="M9.59778 13.0983C8.6663 13.0983 8.22116 12.4905 8.41987 11.5426C8.61625 10.6059 9.33061 9.97021 10.2137 9.97021C10.9714 9.97021 11.5289 10.4358 11.3063 11.498L11.2595 11.721H9.1003C9.00357 12.2368 9.24977 12.5435 9.72037 12.5407C10.0388 12.5435 10.2805 12.4097 10.4125 12.2284H11.1246C10.8837 12.7526 10.3156 13.0983 9.59778 13.0983ZM9.20485 11.2359H10.6662C10.7498 10.8233 10.5281 10.5222 10.1093 10.5222C9.67351 10.5222 9.31114 10.8512 9.20485 11.2359Z" fill="white"/>
<path d="M4.99989 13.0369L5.84619 9H7.42429C8.31873 9 8.66674 9.44607 8.54334 10.0483C8.43763 10.5389 8.06416 10.8122 7.6398 10.907L7.63162 10.946C8.06562 10.9683 8.43518 11.3251 8.3066 11.9385C8.17509 12.5658 7.61201 13.0369 6.66914 13.0369H4.99989ZM5.86792 12.4292H6.68261C7.22383 12.4292 7.49621 12.2033 7.56627 11.8827C7.6394 11.5203 7.40956 11.2443 6.94868 11.2415H6.11691L5.86792 12.4292ZM6.22678 10.7174H6.9731C7.36335 10.7174 7.70577 10.4971 7.78402 10.1375C7.84605 9.82802 7.6655 9.6022 7.22398 9.6022H6.46057L6.22678 10.7174Z" fill="white"/>
<defs>
<clipPath id="clip0_77_2029">
<rect width="12" height="12" fill="white" transform="translate(15 13)"/>
</clipPath>
</defs>
</svg>
