<svg width="18" height="18" viewBox="0 0 18 18" fill="none" xmlns="http://www.w3.org/2000/svg">
<path d="M15.3975 12.1876C15.33 12.1876 13.815 11.9176 13.815 7.50006C13.815 4.38006 12 2.43756 9 2.43756C6 2.43756 4.185 4.38006 4.185 7.50006C4.185 12.0001 2.6175 12.1876 2.625 12.1876C2.47582 12.1876 2.33274 12.2468 2.22725 12.3523C2.12176 12.4578 2.0625 12.6009 2.0625 12.7501C2.0625 12.8992 2.12176 13.0423 2.22725 13.1478C2.33274 13.2533 2.47582 13.3126 2.625 13.3126H6.2475C6.37271 13.9506 6.71567 14.5253 7.21774 14.9384C7.71981 15.3515 8.34981 15.5774 9 15.5774C9.65019 15.5774 10.2802 15.3515 10.7823 14.9384C11.2843 14.5253 11.6273 13.9506 11.7525 13.3126H15.3825C15.5317 13.3126 15.6748 13.2533 15.7802 13.1478C15.8857 13.0423 15.945 12.8992 15.945 12.7501C15.945 12.6009 15.8857 12.4578 15.7802 12.3523C15.6748 12.2468 15.5317 12.1876 15.3825 12.1876H15.3975ZM9 14.4376C8.65222 14.4369 8.31322 14.3283 8.02977 14.1268C7.74632 13.9253 7.53239 13.6408 7.4175 13.3126H10.5825C10.4676 13.6408 10.2537 13.9253 9.97023 14.1268C9.68678 14.3283 9.34778 14.4369 9 14.4376ZM4.32 12.1876C4.86 11.3701 5.31 9.93756 5.31 7.50006C5.31 5.06256 6.66 3.56256 9 3.56256C11.34 3.56256 12.69 4.99506 12.69 7.50006C12.69 10.0051 13.14 11.3701 13.68 12.1876H4.32Z" fill="#00C05A"/>
</svg>
