<svg width="40" height="40" viewBox="0 0 40 40" fill="none" xmlns="http://www.w3.org/2000/svg">
<path fill-rule="evenodd" clip-rule="evenodd" d="M15.5001 16.5C13.5001 12.9 14.6667 10.6667 15.5001 10L20 18.5L24.5 10C26.5 11.2 26 13.5 25.5 14.5L22 21.5L22.5 23L22.4863 23.1369C23.0558 22.7357 23.7504 22.5 24.5 22.5C26.433 22.5 28 24.067 28 26C28 27.933 26.433 29.5 24.5 29.5C22.6496 29.5 21.1346 28.0641 21.0085 26.2458L15.5001 16.5ZM21 20.5C21 21.0523 20.5523 21.5 20 21.5C19.4477 21.5 19 21.0523 19 20.5C19 19.9477 19.4477 19.5 20 19.5C20.5523 19.5 21 19.9477 21 20.5ZM19 26C19 27.933 17.433 29.5 15.5 29.5C13.567 29.5 12 27.933 12 26C12 24.067 13.567 22.5 15.5 22.5C17.433 22.5 19 24.067 19 26ZM13.75 26C13.75 26.9665 14.5335 27.75 15.5 27.75C16.4665 27.75 17.25 26.9665 17.25 26C17.25 25.0335 16.4665 24.25 15.5 24.25C14.5335 24.25 13.75 25.0335 13.75 26ZM22.75 26C22.75 26.9665 23.5335 27.75 24.5 27.75C25.4665 27.75 26.25 26.9665 26.25 26C26.25 25.0335 25.4665 24.25 24.5 24.25C23.5335 24.25 22.75 25.0335 22.75 26Z" fill="#444446"/>
</svg>
