<svg width="40" height="40" viewBox="0 0 40 40" fill="none" xmlns="http://www.w3.org/2000/svg">
<path fill-rule="evenodd" clip-rule="evenodd" d="M22.9904 19.25L16.4952 11L10 19.25H11.9952V27H10.9952V29H29.9952V27H28.0574V24.25H30.4593L27.82 20.25H30.4593L27.82 16.25H30.4593L26.9952 11L23.5311 16.25H26.1705L23.5311 20.25H26.1705L23.5311 24.25H26.0574V27H20.9952V19.25H22.9904ZM13.9952 18H15.9952V20H13.9952V18ZM15.9952 21H13.9952V23H15.9952V21ZM13.9952 24H15.9952V26H13.9952V24ZM18.9952 18H16.9952V20H18.9952V18ZM16.9952 21H18.9952V23H16.9952V21ZM18.9952 24H16.9952V26H18.9952V24Z" fill="#444446"/>
</svg>
