<svg width="20" height="20" viewBox="0 0 20 20" fill="none" xmlns="http://www.w3.org/2000/svg">
<path fill-rule="evenodd" clip-rule="evenodd" d="M10.9202 3.48086L12.4431 6.52315C12.5923 6.82182 12.8804 7.02892 13.2145 7.07684L16.6211 7.5672C17.4628 7.68872 17.7977 8.70881 17.1886 9.2933L14.7252 11.6604C14.4831 11.8932 14.3729 12.2278 14.4301 12.5564L15.0115 15.8982C15.1547 16.7249 14.2748 17.3556 13.5225 16.9645L10.4777 15.3856C10.1792 15.2307 9.82168 15.2307 9.52232 15.3856L6.4775 16.9645C5.72519 17.3556 4.84533 16.7249 4.98937 15.8982L5.56987 12.5564C5.62714 12.2278 5.51694 11.8932 5.27485 11.6604L2.8114 9.2933C2.20226 8.70881 2.5372 7.68872 3.37889 7.5672L6.78554 7.07684C7.11961 7.02892 7.40856 6.82182 7.55781 6.52315L9.07979 3.48086C9.45638 2.72863 10.5436 2.72863 10.9202 3.48086Z" fill="#287CFF" stroke="#287CFF" stroke-width="1.25" stroke-linecap="round" stroke-linejoin="round"/>
</svg>
