<svg width="20" height="20" viewBox="0 0 20 20" fill="none" xmlns="http://www.w3.org/2000/svg">
<rect width="20" height="20" fill="#F4F7F8"/>
<path d="M11.25 10C11.25 10.6904 10.6904 11.25 10 11.25C9.30964 11.25 8.75 10.6904 8.75 10C8.75 9.30964 9.30964 8.75 10 8.75C10.6904 8.75 11.25 9.30964 11.25 10Z" fill="#D1D1D4"/>
<path d="M11.25 17.5C11.25 18.1904 10.6904 18.75 10 18.75C9.30964 18.75 8.75 18.1904 8.75 17.5C8.75 16.8096 9.30964 16.25 10 16.25C10.6904 16.25 11.25 16.8096 11.25 17.5Z" fill="#D1D1D4"/>
<path d="M11.25 2.5C11.25 3.19036 10.6904 3.75 10 3.75C9.30964 3.75 8.75 3.19036 8.75 2.5C8.75 1.80964 9.30964 1.25 10 1.25C10.6904 1.25 11.25 1.80964 11.25 2.5Z" fill="#D1D1D4"/>
</svg>
