<svg width="18" height="18" viewBox="0 0 18 18" fill="none" xmlns="http://www.w3.org/2000/svg">
<g id="home_ic_pen">
<path id="Vector" d="M8.17036 12.8881L12.238 8.82042C11.5536 8.5347 10.9321 8.11723 10.4088 7.59177C9.88307 7.0683 9.46542 6.44658 9.17958 5.76198L5.11192 9.82964C4.79458 10.147 4.63564 10.3059 4.49924 10.4808C4.33816 10.6872 4.20003 10.9105 4.08731 11.1468C3.99216 11.347 3.92121 11.5604 3.77932 11.9861L3.03025 14.2317C2.99577 14.3345 2.99066 14.4449 3.01548 14.5505C3.0403 14.656 3.09407 14.7526 3.17075 14.8292C3.24743 14.9059 3.34398 14.9597 3.44954 14.9845C3.55511 15.0093 3.6655 15.0042 3.76832 14.9698L6.01389 14.2207C6.44012 14.0788 6.65297 14.0078 6.85316 13.9127C7.08965 13.7999 7.31294 13.6619 7.51919 13.5008C7.69408 13.3644 7.85302 13.2054 8.17036 12.8881ZM13.3666 7.69186C13.7722 7.28629 14 6.73621 14 6.16264C14 5.58908 13.7722 5.039 13.3666 4.63342C12.961 4.22785 12.4109 4 11.8374 4C11.2638 4 10.7137 4.22785 10.3081 4.63342L9.8203 5.12126L9.8412 5.1823C10.0816 5.87017 10.475 6.4945 10.9918 7.00824C11.5209 7.54045 12.167 7.94161 12.8787 8.1797L13.3666 7.69186Z" fill="#287CFF"/>
</g>
</svg>
