<svg width="18" height="18" viewBox="0 0 18 18" fill="none" xmlns="http://www.w3.org/2000/svg">
<path d="M8.61958 1.17082C8.73932 0.802296 9.26068 0.802296 9.38042 1.17082L11.1553 6.63344C11.2089 6.79825 11.3625 6.90983 11.5358 6.90983H17.2795C17.667 6.90983 17.8281 7.40568 17.5146 7.63344L12.8678 11.0095C12.7276 11.1114 12.669 11.2919 12.7225 11.4567L14.4974 16.9193C14.6172 17.2879 14.1954 17.5943 13.8819 17.3666L9.23511 13.9905C9.09492 13.8886 8.90508 13.8886 8.76489 13.9905L4.11811 17.3666C3.80462 17.5943 3.38283 17.2879 3.50257 16.9193L5.27748 11.4567C5.33103 11.2919 5.27237 11.1114 5.13217 11.0095L0.485394 7.63344C0.171909 7.40568 0.333019 6.90983 0.720508 6.90983H6.46424C6.63753 6.90983 6.79112 6.79825 6.84467 6.63344L8.61958 1.17082Z" fill="#FD4D5F"/>
</svg>
