<svg width="16" height="16" viewBox="0 0 16 16" fill="none" xmlns="http://www.w3.org/2000/svg">
<circle cx="8" cy="8" r="8" fill="#FF98A0"/>
<path d="M7.61958 3.17082C7.73932 2.8023 8.26068 2.8023 8.38042 3.17082L9.25728 5.8695C9.31083 6.03431 9.46441 6.1459 9.6377 6.1459H12.4753C12.8628 6.1459 13.0239 6.64174 12.7104 6.8695L10.4147 8.53738C10.2745 8.63924 10.2159 8.81979 10.2694 8.9846L11.1463 11.6833C11.266 12.0518 10.8442 12.3583 10.5308 12.1305L8.23511 10.4626C8.09492 10.3608 7.90508 10.3608 7.76489 10.4626L5.46925 12.1305C5.15576 12.3583 4.73397 12.0518 4.85371 11.6833L5.73057 8.9846C5.78412 8.81979 5.72545 8.63924 5.58526 8.53738L3.28962 6.8695C2.97614 6.64174 3.13725 6.1459 3.52473 6.1459H6.3623C6.53559 6.1459 6.68917 6.03431 6.74272 5.8695L7.61958 3.17082Z" fill="white"/>
</svg>
